<svg width="3014" height="1780" viewBox="0 0 3014 1780" fill="none" xmlns="http://www.w3.org/2000/svg">
<path d="M1610.15 1050.09C1538.27 1176.72 1358.57 1176.72 1286.69 1050.09L852.33 284.909C780.45 158.283 870.3 0.00012921 1014.06 0.000116428L1882.78 3.91848e-05C2026.54 2.64022e-05 2116.39 158.283 2044.51 284.909L1610.15 1050.09Z" fill="#EB8B7B"/>
<path d="M783.116 729.908C711.237 603.282 531.537 603.282 459.657 729.908L25.2982 1495.09C-46.5815 1621.72 43.2682 1780 187.028 1780L1055.75 1780C1199.51 1780 1289.36 1621.72 1217.48 1495.09L783.116 729.908Z" fill="#EB8B7B"/>
<path d="M2447.85 729.908C2375.97 603.282 2196.27 603.282 2124.39 729.908L1690.03 1495.09C1618.15 1621.72 1708 1780 1851.76 1780L2720.48 1780C2864.24 1780 2954.09 1621.72 2882.21 1495.09L2447.85 729.908Z" fill="#EB8B7B"/>
<path d="M989.549 271.341C989.549 121.484 1108.99 0 1256.33 0H2040.68C2188.02 0 2307.46 121.484 2307.46 271.341C2307.46 421.199 2188.02 542.683 2040.68 542.683H1256.33C1108.99 542.683 989.549 421.199 989.549 271.341Z" fill="#EB8B7B"/>
<path d="M1930.24 69.4358C2057.84 -5.49302 2221 38.9731 2294.67 168.754L2978.21 1372.9C3051.88 1502.68 3008.16 1668.63 2880.56 1743.56C2752.96 1818.49 2589.8 1774.03 2516.13 1644.25L1832.59 440.095C1758.92 310.314 1802.64 144.365 1930.24 69.4358Z" fill="#EB8B7B"/>
</svg>
