<?xml version="1.0" standalone="no"?>
<!DOCTYPE svg PUBLIC "-//W3C//DTD SVG 20010904//EN"
 "http://www.w3.org/TR/2001/REC-SVG-20010904/DTD/svg10.dtd">
<svg version="1.0" xmlns="http://www.w3.org/2000/svg"
 width="3014.000000pt" height="3014.000000pt" viewBox="0 0 3014.000000 3014.000000"
 preserveAspectRatio="xMidYMid meet">
<metadata>
Created by potrace 1.14, written by Peter Selinger 2001-2017
</metadata>
<g transform="translate(0.000000,3014.000000) scale(0.100000,-0.100000)"
fill="#000000" stroke="none">
<path d="M9969 23966 c-2 -2 -29 -7 -59 -10 -153 -18 -434 -93 -477 -128 -7
-6 -13 -7 -13 -4 0 12 -199 -94 -294 -157 -384 -251 -673 -658 -791 -1113 -25
-96 -29 -114 -40 -184 -3 -19 -8 -51 -11 -70 -13 -78 -12 -368 1 -467 36 -259
117 -500 245 -723 23 -41 56 -100 73 -130 17 -30 50 -88 74 -128 24 -41 43
-75 43 -77 0 -2 23 -43 51 -92 28 -48 148 -259 267 -468 118 -209 223 -393
232 -410 10 -16 95 -167 190 -335 95 -168 176 -309 180 -315 4 -5 21 -35 37
-65 16 -30 77 -138 135 -240 58 -102 117 -205 131 -230 14 -25 48 -85 76 -133
28 -49 51 -90 51 -92 0 -1 30 -54 66 -116 36 -63 82 -143 101 -179 20 -36 44
-77 55 -92 10 -14 18 -28 18 -31 0 -3 23 -44 50 -92 28 -48 50 -91 50 -96 0
-5 5 -9 10 -9 6 0 10 -5 10 -11 0 -6 15 -37 34 -68 19 -31 47 -81 64 -111 25
-46 129 -230 204 -360 33 -57 149 -262 173 -305 12 -22 49 -87 82 -145 93
-162 444 -780 469 -825 12 -22 53 -94 91 -160 38 -66 72 -127 76 -135 4 -8 15
-28 25 -45 10 -16 32 -55 49 -85 16 -30 53 -95 82 -144 28 -49 51 -90 51 -92
0 -2 18 -33 40 -69 22 -36 40 -67 40 -69 0 -2 23 -43 51 -92 48 -83 72 -125
122 -214 11 -19 45 -80 77 -135 31 -55 68 -120 82 -145 14 -25 48 -85 77 -134
28 -49 51 -90 51 -92 0 -1 20 -37 45 -78 25 -42 45 -78 45 -80 0 -4 83 -149
100 -176 6 -8 13 -22 17 -30 4 -8 20 -37 36 -65 27 -46 43 -73 100 -175 194
-348 245 -428 367 -575 35 -42 177 -182 231 -227 62 -53 221 -159 303 -203
163 -87 394 -165 561 -189 23 -4 52 -9 65 -12 14 -3 106 -7 205 -9 364 -7 652
66 975 246 141 79 332 239 465 390 61 69 225 304 225 322 0 2 46 85 103 183
57 99 106 186 110 194 4 8 17 31 28 50 11 19 64 112 116 205 53 94 104 182
114 197 11 15 19 29 19 31 0 3 34 65 76 138 76 133 110 194 146 257 48 86 136
239 168 297 22 38 153 268 208 365 14 25 101 180 195 345 93 165 177 311 185
325 9 14 26 43 37 65 12 22 59 105 104 185 46 80 97 170 114 200 16 30 41 72
54 92 12 21 23 40 23 43 0 3 15 29 33 58 18 29 39 66 47 82 8 17 22 41 31 55
9 14 29 50 46 80 38 70 133 236 213 375 9 17 59 104 110 195 51 91 101 180
111 198 45 77 63 110 87 151 14 25 38 67 53 93 16 27 29 51 29 54 0 3 8 18 19
32 10 15 32 52 48 82 87 161 201 354 210 357 6 2 13 -4 16 -14 3 -10 22 -45
41 -78 19 -33 43 -76 54 -96 11 -19 86 -151 166 -292 174 -305 182 -319 214
-377 31 -57 90 -159 144 -252 23 -40 43 -75 43 -78 0 -3 8 -16 17 -30 9 -14
29 -48 45 -77 15 -28 56 -100 89 -160 34 -59 74 -130 89 -158 15 -27 31 -54
35 -60 4 -5 17 -26 27 -45 11 -19 62 -109 113 -200 51 -91 102 -181 113 -200
87 -155 192 -339 205 -360 9 -14 17 -27 17 -30 0 -3 12 -25 27 -50 14 -25 67
-115 116 -202 l89 -156 -33 -59 c-18 -32 -41 -74 -52 -94 -11 -20 -87 -153
-168 -295 -81 -142 -158 -279 -172 -304 -13 -25 -48 -85 -77 -135 -28 -49 -84
-146 -122 -215 -39 -69 -81 -143 -93 -165 -13 -22 -35 -60 -49 -85 -14 -25
-67 -119 -119 -210 -52 -91 -105 -183 -117 -205 -56 -102 -291 -514 -312 -547
-12 -21 -23 -39 -23 -41 0 -2 -22 -42 -49 -89 -26 -46 -62 -109 -79 -140 -17
-31 -142 -251 -278 -489 -136 -239 -260 -459 -277 -489 -17 -30 -38 -67 -49
-82 -10 -14 -18 -29 -18 -33 0 -4 -15 -33 -34 -64 -19 -31 -43 -72 -53 -91
-30 -54 -204 -361 -223 -395 -54 -93 -390 -685 -418 -735 -14 -25 -28 -49 -32
-55 -4 -5 -21 -35 -37 -65 -17 -30 -47 -84 -68 -120 -20 -36 -51 -90 -68 -120
-16 -30 -66 -118 -110 -195 -67 -117 -191 -337 -309 -545 -14 -25 -44 -77 -67
-117 -22 -39 -49 -87 -59 -105 -11 -18 -49 -87 -87 -152 -134 -237 -204 -399
-247 -571 -27 -110 -26 -107 -44 -230 -3 -27 -8 -59 -10 -70 -6 -30 -5 -303 2
-360 3 -27 10 -77 16 -110 5 -33 12 -73 15 -90 17 -111 95 -331 168 -478 146
-288 370 -548 616 -711 41 -27 86 -58 101 -68 49 -33 227 -116 315 -148 99
-35 252 -75 328 -86 28 -3 59 -9 70 -13 30 -9 9352 -11 9415 -2 30 5 84 12
120 15 53 6 230 40 314 61 126 31 410 136 476 176 8 5 39 20 68 34 266 127
645 432 837 675 33 41 63 77 66 80 13 11 158 229 189 285 70 125 166 324 175
360 1 6 6 19 10 30 33 81 82 235 100 311 17 72 55 266 59 299 28 221 28 598 2
745 -3 14 -7 43 -11 65 -46 319 -174 676 -348 970 -23 38 -47 81 -54 95 -7 14
-17 32 -22 40 -6 8 -102 177 -214 375 -243 429 -288 508 -316 558 -12 21 -40
71 -62 110 -23 40 -53 92 -67 117 -60 107 -133 236 -142 250 -5 8 -32 56 -59
105 -28 50 -64 113 -79 140 -16 28 -39 68 -52 90 -12 22 -77 137 -145 255 -67
118 -133 235 -147 260 -14 25 -72 126 -128 225 -57 99 -114 200 -128 225 -14
25 -62 110 -107 190 -46 80 -95 168 -111 195 -15 28 -61 108 -101 178 -41 71
-86 150 -100 175 -14 26 -70 124 -123 217 -53 94 -111 196 -129 227 -17 31
-60 107 -96 169 -36 61 -65 113 -65 115 0 1 -22 41 -50 89 -27 48 -50 89 -50
91 0 3 -8 17 -19 32 -16 23 -75 127 -180 315 -12 21 -40 71 -62 110 -23 40
-53 92 -67 117 -14 25 -60 106 -102 180 -42 74 -88 155 -102 180 -14 25 -92
162 -174 305 -81 143 -158 278 -170 300 -17 32 -172 304 -222 390 -37 64 -129
228 -155 275 -17 30 -50 88 -74 128 -24 41 -43 75 -43 76 0 2 -23 43 -51 92
-29 49 -64 112 -79 139 -15 28 -71 127 -125 220 -100 176 -178 314 -213 375
-11 19 -38 67 -61 107 -22 39 -50 89 -62 110 -12 21 -85 150 -164 288 -78 137
-153 270 -167 295 -14 25 -35 63 -48 85 -12 22 -49 87 -82 145 -32 58 -63 112
-68 120 -5 8 -69 120 -142 249 -73 128 -144 252 -157 275 -19 33 -186 329
-269 476 -10 19 -91 161 -179 315 -88 154 -170 298 -182 320 -12 22 -26 47
-31 55 -16 25 -190 333 -190 337 0 2 -11 20 -23 41 -13 20 -38 63 -56 95 -17
31 -76 135 -130 230 -54 94 -109 192 -123 217 -14 25 -51 89 -82 142 -31 54
-56 100 -56 102 0 2 -17 33 -39 68 -21 35 -59 101 -85 148 -70 127 -191 313
-233 360 -13 14 -47 62 -76 108 -232 369 -527 663 -887 884 -226 139 -468 241
-730 308 -93 24 -95 24 -160 35 -25 4 -54 9 -65 11 -11 2 -40 7 -65 10 -25 3
-56 8 -70 12 -26 7 -10713 15 -10721 8z"/>
<path d="M6035 17613 c-449 -47 -863 -250 -1166 -573 -118 -126 -201 -243
-307 -430 -120 -213 -173 -307 -182 -320 -5 -8 -19 -33 -31 -55 -12 -22 -67
-119 -122 -215 -55 -96 -111 -195 -125 -220 -13 -25 -39 -70 -57 -100 -18 -30
-45 -77 -60 -105 -40 -73 -101 -181 -192 -340 -124 -218 -290 -509 -355 -625
-33 -58 -64 -112 -69 -120 -14 -22 -234 -413 -242 -430 -4 -8 -13 -24 -20 -35
-18 -31 -140 -244 -287 -505 -73 -129 -143 -252 -157 -273 -13 -21 -28 -48
-34 -60 -5 -12 -18 -35 -28 -52 -10 -16 -68 -118 -128 -225 -61 -107 -242
-427 -403 -710 -161 -283 -359 -632 -440 -775 -81 -143 -205 -361 -275 -485
-70 -124 -136 -238 -145 -255 -98 -172 -151 -266 -169 -295 -11 -19 -24 -42
-28 -50 -3 -8 -30 -55 -59 -105 -28 -49 -81 -142 -117 -205 -35 -63 -82 -146
-104 -185 -22 -38 -51 -90 -65 -115 -14 -25 -71 -126 -128 -225 -57 -99 -112
-196 -122 -215 -10 -19 -23 -42 -28 -50 -58 -88 -198 -355 -253 -480 -80 -185
-128 -429 -132 -670 -4 -244 24 -429 95 -641 100 -301 248 -539 475 -764 294
-292 655 -469 1065 -522 83 -10 9065 -11 9145 0 99 13 115 17 238 47 163 41
322 107 482 199 43 25 127 81 135 90 3 4 32 26 65 51 82 60 247 228 320 325
110 145 206 316 270 480 32 80 83 253 91 305 3 19 7 42 9 50 3 8 7 32 10 53 3
20 8 54 11 75 10 64 12 314 3 392 -15 126 -29 210 -49 285 -6 22 -12 47 -14
56 -17 67 -81 232 -129 327 -38 75 -189 348 -217 392 -5 8 -23 40 -40 70 -16
30 -40 73 -53 95 -13 22 -35 60 -49 85 -14 25 -42 74 -62 108 -20 35 -36 68
-36 73 0 5 -4 9 -10 9 -5 0 -10 4 -10 9 0 5 -16 38 -36 73 -20 34 -48 83 -62
108 -14 25 -61 108 -105 185 -44 77 -100 176 -125 220 -24 44 -70 125 -102
180 -31 55 -68 120 -82 145 -14 25 -164 288 -333 585 -169 297 -317 558 -329
580 -39 69 -75 133 -201 355 -204 358 -286 503 -308 540 -11 19 -30 53 -42 75
-11 22 -43 78 -70 125 -26 47 -113 200 -193 340 -80 140 -200 352 -267 470
-305 537 -378 666 -397 699 -10 20 -23 43 -28 51 -11 17 -183 320 -225 395
-15 28 -71 127 -125 220 -53 94 -108 190 -122 215 -95 170 -179 317 -188 330
-6 8 -13 22 -17 30 -4 8 -26 48 -50 88 -24 41 -43 76 -43 78 0 2 -20 38 -45
78 -25 41 -45 76 -45 79 0 2 -39 71 -86 153 -47 82 -102 178 -121 214 -20 36
-44 77 -55 92 -10 14 -18 28 -18 31 0 10 -138 244 -180 308 -100 148 -235 298
-355 394 -28 22 -52 42 -55 45 -12 13 -112 80 -180 121 -191 114 -432 203
-635 233 -22 4 -65 10 -95 15 -51 8 -327 11 -395 4z"/>
</g>
</svg>
